<svg width="147" height="14" viewBox="0 0 147 14" fill="none" xmlns="http://www.w3.org/2000/svg">
<path d="M0.3608 0.947199H10.4048C12.014 0.947199 13.1966 1.228 13.9526 1.7896C14.5898 2.2648 14.9084 2.9236 14.9084 3.766V3.8794C14.9084 4.6138 14.633 5.2078 14.0822 5.6614C13.8662 5.845 13.6232 5.9962 13.3532 6.115C13.0832 6.223 12.824 6.2932 12.5756 6.3256C13.3532 6.4228 14.012 6.6766 14.552 7.087C15.2324 7.6378 15.5726 8.3722 15.5726 9.2902V9.4522C15.5726 10.543 15.2054 11.38 14.471 11.9632C13.6286 12.6544 12.2786 13 10.421 13H0.3608V0.947199ZM4.7348 3.766V5.5156H9.1898C9.9998 5.5156 10.4048 5.2294 10.4048 4.657V4.6246C10.4048 4.0522 9.9998 3.766 9.1898 3.766H4.7348ZM4.7348 8.1238V10.0516H9.5138C10.043 10.0516 10.4156 9.9436 10.6316 9.7276C10.7936 9.5764 10.8746 9.3604 10.8746 9.0796V9.0148C10.8746 8.7232 10.7936 8.5126 10.6316 8.383C10.4264 8.2102 10.0538 8.1238 9.5138 8.1238H4.7348ZM15.2876 0.947199H19.6616V9.5818H26.8706V13H15.2876V0.947199ZM33.3911 13.1782C31.2851 13.1782 29.6327 12.7948 28.4339 12.028C27.4727 11.4124 26.8031 10.5484 26.4251 9.436C26.1767 8.7016 26.0525 7.789 26.0525 6.6982V0.947199H30.3941V6.6658C30.3941 7.5298 30.5885 8.194 30.9773 8.6584C31.4849 9.3064 32.3597 9.6304 33.6017 9.6304H33.6665C34.8869 9.6304 35.7509 9.3064 36.2585 8.6584C36.6257 8.1832 36.8093 7.519 36.8093 6.6658V0.947199H41.1509V6.6982C41.1509 7.7242 41.0159 8.6368 40.7459 9.436C40.3571 10.5376 39.6821 11.4016 38.7209 12.028C37.5437 12.7948 35.9345 13.1782 33.8933 13.1782H33.3911ZM41.4708 0.947199H53.5074V3.8632H45.8286V5.4022H53.2644V8.3992H45.8286V10.0516H53.6208V13H41.4708V0.947199ZM56.2476 0.947199H66.2916C67.9008 0.947199 69.0834 1.228 69.8394 1.7896C70.4766 2.2648 70.7952 2.9236 70.7952 3.766V3.8794C70.7952 4.6138 70.5198 5.2078 69.969 5.6614C69.753 5.845 69.51 5.9962 69.24 6.115C68.97 6.223 68.7108 6.2932 68.4624 6.3256C69.24 6.4228 69.8988 6.6766 70.4388 7.087C71.1192 7.6378 71.4594 8.3722 71.4594 9.2902V9.4522C71.4594 10.543 71.0922 11.38 70.3578 11.9632C69.5154 12.6544 68.1654 13 66.3078 13H56.2476V0.947199ZM60.6216 3.766V5.5156H65.0766C65.8866 5.5156 66.2916 5.2294 66.2916 4.657V4.6246C66.2916 4.0522 65.8866 3.766 65.0766 3.766H60.6216ZM60.6216 8.1238V10.0516H65.4006C65.9298 10.0516 66.3024 9.9436 66.5184 9.7276C66.6804 9.5764 66.7614 9.3604 66.7614 9.0796V9.0148C66.7614 8.7232 66.6804 8.5126 66.5184 8.383C66.3132 8.2102 65.9406 8.1238 65.4006 8.1238H60.6216ZM81.9512 13L81.0602 11.0398H74.8232L73.9484 13H69.5906L75.1634 0.947199H80.882L86.5844 13H81.9512ZM79.7966 8.221L77.9336 4.1062L76.103 8.221H79.7966ZM96.5477 13L89.7923 6.0502V13H85.5317V0.947199H89.9867L96.4829 7.6864V0.947199H100.743V13H96.5477ZM112.058 13L111.167 11.0398H104.93L104.055 13H99.6973L105.27 0.947199H110.989L116.691 13H112.058ZM109.903 8.221L108.04 4.1062L106.21 8.221H109.903ZM126.654 13L119.899 6.0502V13H115.638V0.947199H120.093L126.59 7.6864V0.947199H130.85V13H126.654ZM142.165 13L141.274 11.0398H135.037L134.162 13H129.804L135.377 0.947199H141.095L146.798 13H142.165ZM140.01 8.221L138.147 4.1062L136.316 8.221H140.01Z" fill="white"/>
</svg>
