<svg width="28" height="28" viewBox="0 0 28 28" fill="none" xmlns="http://www.w3.org/2000/svg">
<path d="M22.24 0H5.36828C2.40039 0 0 2.40039 0 5.36828V22.24C0 25.2079 2.40039 27.6083 5.36828 27.6083H22.24C25.2079 27.6083 27.6083 25.2079 27.6083 22.24V5.36828C27.6083 2.40039 25.2079 0 22.24 0ZM23.7738 3.18262H24.3796V7.86069H19.7169V3.18262H23.7738ZM9.86996 10.9743C11.4421 8.80397 14.4713 8.32083 16.6417 9.89297C18.812 11.4651 19.2951 14.4943 17.723 16.6647C16.1508 18.835 13.1216 19.3181 10.9513 17.746C9.6859 16.8334 8.94201 15.3686 8.94968 13.8041C8.94968 12.7842 9.27178 11.7949 9.86996 10.9743ZM24.9241 22.24C24.9395 23.7048 23.7661 24.8935 22.3014 24.9088C22.2783 24.9088 22.263 24.9088 22.24 24.9088H5.36828C3.9035 24.9241 2.70714 23.7585 2.69181 22.2937C2.69181 22.2783 2.69181 22.2553 2.69181 22.24V10.9743H6.81004C5.24557 14.8394 7.10913 19.2338 10.9743 20.7982C14.8394 22.3627 19.2338 20.4991 20.7982 16.634C21.5345 14.8164 21.5345 12.7842 20.7982 10.9666H24.9241V22.2323V22.24Z" fill="white"/>
</svg>
