<svg width="30" height="28" viewBox="0 0 30 28" fill="none" xmlns="http://www.w3.org/2000/svg">
<path d="M6.58828 27.6083H0.772648V8.85798H6.58828V27.6083ZM3.52261 6.5142H3.48107C1.69484 6.64765 0.141237 5.30477 0.00830805 3.51148C0 3.42807 0 3.34467 0 3.26126C0 1.40958 1.40406 0.0083181 3.56415 0.0083181C5.35869 -0.133477 6.92891 1.2094 7.07015 3.01103C7.07015 3.09444 7.07846 3.17785 7.07846 3.26126C7.07846 5.07957 5.70763 6.5142 3.52261 6.5142ZM29.909 27.6083H23.2625V17.9078C23.2625 15.4056 22.2323 13.6373 19.9393 13.6373C18.502 13.6373 17.2309 14.5631 16.7823 15.931C16.641 16.4231 16.5995 16.9403 16.641 17.4574V27.6083H10.1441C10.1441 27.6083 10.2272 10.4261 10.1441 8.86632H16.6909V11.8357C17.0813 10.5512 19.1833 8.71619 22.5065 8.71619C26.6605 8.71619 29.909 11.4103 29.909 17.2155V27.6083Z" fill="white"/>
</svg>
