<svg width="66" height="76" viewBox="0 0 66 76" fill="none" xmlns="http://www.w3.org/2000/svg">
<g clip-path="url(#clip0_1_486)">
<path d="M59.0179 54.9884C56.5314 54.8188 54.0026 54.6349 51.5863 54.0411C48.5939 53.3058 46.4867 51.4111 46.0371 48.1308C45.9247 47.3107 45.8404 46.4764 45.8826 45.6422C46.1916 40.6227 46.4867 35.589 46.9081 30.5836C47.1048 28.3637 47.6105 26.1579 48.0601 23.429C49.9566 25.5216 51.4598 27.1901 52.7944 28.6748C57.4024 24.5177 61.7012 20.6435 65.986 16.7834C63.5275 14.9735 60.9426 13.6161 59.0882 11.5801C56.7421 9.00666 54.8877 5.95252 53.0473 2.96908C52.1904 1.58341 51.3755 0.791593 49.6616 0.749175C46.2619 0.664338 42.834 0.551221 39.4624 0.0563376C36.3015 -0.396127 33.6884 2.20555 33.7025 5.10415C33.7306 15.9775 33.4777 26.8366 33.281 37.7099C33.267 38.3603 32.9158 38.9966 32.7191 39.6329C32.0729 39.4349 31.3704 39.3501 30.8085 39.0108C27.1559 36.7908 23.6156 34.3588 19.8787 32.2803C16.4649 30.3856 13.4024 30.8947 11.7165 34.0761C8.06392 40.9337 4.46749 47.8197 1.0256 54.7905C0.281031 56.2751 -0.210667 58.2405 0.0562548 59.8242C0.702487 63.5711 3.4279 65.7628 6.7855 67.1343C11.0282 68.8593 15.2427 70.7257 19.5837 72.1114C22.7727 73.1294 26.1584 73.7233 29.502 74.0768C31.539 74.2889 33.6603 73.7374 35.7395 73.4547C38.3947 73.087 40.6706 71.8145 42.4407 69.8774C43.2695 68.9724 43.8736 69.0714 44.6463 69.6087C47.2734 71.461 49.8864 73.3415 52.4994 75.208C54.1993 76.4381 54.6488 76.3108 55.562 74.3313C55.7025 74.0202 55.9132 73.7374 56.0818 73.4264C58.7932 68.2372 60.7178 62.8359 60.8021 56.869C60.8302 55.4268 60.3385 55.0733 58.9898 54.9884H59.0179ZM35.3321 64.5326C34.8123 67.9968 33.4496 68.4634 29.811 67.1343C25.1469 65.4375 20.9183 62.7793 16.9847 59.6686C15.3832 58.3961 15.3411 56.5014 14.9758 54.7763C14.737 53.6452 14.9477 52.415 14.9758 51.2273C14.8915 51.2273 14.8213 51.2132 14.737 51.199C15.1163 48.0176 15.4534 44.8221 15.903 41.6407C16.0997 40.1843 17.4764 39.7177 18.4598 40.7782C22.3934 45.0059 26.2849 49.2478 30.1201 53.5603C31.6374 55.2571 33.281 56.968 34.2925 58.9616C35.1214 60.5877 35.6271 62.7369 35.3602 64.5185L35.3321 64.5326Z" fill="#D33945"/>
</g>
<defs>
<clipPath id="clip0_1_486">
<rect width="66" height="76" fill="white"/>
</clipPath>
</defs>
</svg>
